<svg id="Layer_1" data-name="Layer 1" xmlns="http://www.w3.org/2000/svg" viewBox="0 0 360 360"><path d="M235.51,273.4c-18.67,0-32.37-11.81-32.37-36.63,0-45.61,45.61-133.3,45.61-169.46,0-3.78-.71-6.14-3.55-6.14-14.18,0-50.1,43.49-59.08,55.3C144.52,170.36,102,245.75,90.87,266.31c-2.13,4.49-6.85,6.86-11.81,6.86a13.29,13.29,0,0,1-13.71-13.71A14.93,14.93,0,0,1,67,252.37c10.4-19.85,26.24-52.94,38.29-82,10.16-24.11,30.49-74.92,30.49-100.92,0-6.85-.24-8.27-2.84-8.27-38,0-83,52.23-83,90.75,0,13.24,4.73,12.77,4.73,20.09,0,7.09-5.67,14.18-13.47,14.18-14.65,0-18.91-21-18.91-34.27,0-50.57,54.36-118.17,111.08-118.17,17.49,0,30,11.35,30,35.69,0,12-3.55,28.36-6.62,39.94,20.09-27.18,57.91-75.63,89.58-75.63,17.49,0,29.77,11.11,29.77,33.33,0,44.43-45.61,130.69-45.61,169.69,0,8.75,1.66,9,4,9,21.51,0,43.72-23.16,57-39.94,4.25-5.44,7.32-12.29,16.07-12.29,8,0,13.71,6.14,13.71,13.94C321.31,218.1,277.11,273.4,235.51,273.4Z"/><path d="M31.57,340.22a7.5,7.5,0,0,1-2.45-14.59,1021.49,1021.49,0,0,1,116.59-30.86c86.44-17.34,151.94-17.61,194.7-.83a7.5,7.5,0,0,1-5.48,14C238.84,270.18,36,339.11,34,339.81A7.38,7.38,0,0,1,31.57,340.22Z"/></svg>