<svg id="Layer_1" data-name="Layer 1" xmlns="http://www.w3.org/2000/svg" viewBox="0 0 360 360"><defs><style>.cls-1{fill:none;stroke:#000;stroke-linecap:round;stroke-miterlimit:10;stroke-width:8px;}</style></defs><path d="M113,204.52c-7.94,0-13.76-5-13.76-15.58,0-19.39,19.39-56.66,19.39-72,0-1.6-.3-2.61-1.51-2.61-6,0-21.3,18.49-25.12,23.51-17.68,22.91-35.77,55-40.49,63.7a5.4,5.4,0,0,1-5,2.92,5.65,5.65,0,0,1-5.83-5.83,6.34,6.34,0,0,1,.7-3c4.42-8.44,11.16-22.51,16.28-34.87,4.32-10.25,13-31.85,13-42.9,0-2.91-.1-3.52-1.2-3.52-16.18,0-35.27,22.21-35.27,38.59,0,5.62,2,5.42,2,8.53a6,6,0,0,1-5.73,6c-6.23,0-8-8.94-8-14.56,0-21.51,23.11-50.24,47.23-50.24,7.43,0,12.76,4.82,12.76,15.17,0,5.12-1.51,12.06-2.82,17,8.54-11.56,24.62-32.15,38.08-32.15,7.44,0,12.66,4.72,12.66,14.16,0,18.89-19.39,55.57-19.39,72.14,0,3.72.7,3.82,1.71,3.82,9.14,0,18.59-9.84,24.21-17,1.81-2.31,3.12-5.22,6.84-5.22a5.73,5.73,0,0,1,5.82,5.93C149.43,181,130.64,204.52,113,204.52Z"/><path d="M170.52,193a40.91,40.91,0,0,1-5-.3c-8,8.84-15.88,11.76-21.31,11.76-6.53,0-11.45-4.42-11.45-12.46,0-13.36,13.46-30.14,19-30.14a5.7,5.7,0,0,1,3.72,1.2c3.11-3.11,6.53-6.13,10.75-6.13,6.63,0,11.35,4.22,11.35,11.36,0,4.32-1.71,8.84-3.82,12.76A28.79,28.79,0,0,0,189,173.37c1.8-1.61,2.91-2.81,5.32-2.81a5.7,5.7,0,0,1,5.93,5.73C200.26,182.21,185.19,193,170.52,193Zm-16.58-5.42a16.06,16.06,0,0,1-4.72-8C145.6,185.23,144.5,190,144.5,192c0,.5.1.7.5.7C146.91,192.66,151,190.15,153.94,187.54Zm11.66-18a33.56,33.56,0,0,0-3.32,3.32,16.32,16.32,0,0,0-1.31,2.21c-.1.4-.2.8-.3,1.1v.71c0,.2.1.4.1.6.2.2.3.5.51.7,0,.11.1.21.3.31a48.76,48.76,0,0,0,3-5.53A20.17,20.17,0,0,0,165.6,169.55Z"/><path d="M221.35,193a41.15,41.15,0,0,1-5-.3c-8,8.84-15.88,11.76-21.3,11.76-6.53,0-11.45-4.42-11.45-12.46,0-13.36,13.46-30.14,19-30.14a5.68,5.68,0,0,1,3.72,1.2c3.12-3.11,6.53-6.13,10.75-6.13,6.63,0,11.36,4.22,11.36,11.36,0,4.32-1.71,8.84-3.82,12.76a28.76,28.76,0,0,0,15.27-7.64c1.81-1.61,2.91-2.81,5.33-2.81a5.7,5.7,0,0,1,5.92,5.73C251.09,182.21,236,193,221.35,193Zm-16.57-5.42a16.07,16.07,0,0,1-4.73-8c-3.61,5.73-4.72,10.45-4.72,12.46,0,.5.1.7.5.7C197.74,192.66,201.86,190.15,204.78,187.54Zm11.65-18a35.87,35.87,0,0,0-3.32,3.32,15.5,15.5,0,0,0-1.3,2.21c-.1.4-.2.8-.3,1.1v.71c0,.2.1.4.1.6.2.2.3.5.5.7,0,.11.1.21.3.31a48.81,48.81,0,0,0,3-5.53A19.27,19.27,0,0,0,216.43,169.55Z"/><path d="M271.08,204.42c-6.63,0-10.45-5.13-10.45-12s3.62-16,6.63-22.2c-2.51-.91-4.92-1.91-7.43-2.82a84.45,84.45,0,0,1-6.53,8.95c-3.52,4.12-5,5.82-7.94,5.82a5.77,5.77,0,0,1-5.93-5.72c0-4.63,4.12-5,10.25-15,1.61-2.62,3.52-6.13,3.52-9.25a5.88,5.88,0,1,1,11.75-.1,18.86,18.86,0,0,1-.5,4.52c9.65,3.62,12.16,4.52,12.86,4.83,2.82,1.1,4.42,2.91,4.42,5.82s-1.2,2.41-4.42,9c-2,4.22-4.92,11.45-4.92,16.07,7-1.71,18.39-11.05,23.81-16.07,4.92-4.53,5.53-5.83,8.54-5.83a5.76,5.76,0,0,1,5.93,5.73C310.67,181.21,284.55,204.42,271.08,204.42Z"/><path class="cls-1" d="M31.57,257.36s206.28-71,306.1-31.79"/></svg>